<svg xmlns="http://www.w3.org/2000/svg"  viewBox="0 0 100 100" width="100px" height="100px"><path d="M51.5,97.75c-24.331,0-33-12.269-33-23.75 c0-0.722,0.032-1.463,0.097-2.219C14.26,66.994,6.303,55.977,6.017,39.399c-0.027-1.582,0.291-7.234,0.524-8.846 C8.844,14.645,18.194,9,25.5,9C28.901,9,40,10.694,40,32.5c0,0.532-0.013,1.05-0.039,1.555C40.988,33.385,42.208,33,43.502,33 c0.387,0,0.777,0.035,1.158,0.104c0.016,0.003,0.032,0.007,0.049,0.01c0.073-0.079,0.148-0.157,0.226-0.234 c1.231-1.213,2.853-1.877,4.571-1.877c0.875,0,1.725,0.172,2.509,0.501c0.796-0.328,1.646-0.497,2.491-0.497 c2.476,0,4.702,1.374,5.808,3.587c0.264,0.53,0.958,2.108,1.366,4.733c1.195,0.539,2.386,1.17,3.562,1.884 C64.544,38.71,64,35.886,64,32.5C64,10.694,75.099,9,78.5,9C85.743,9,98,15.213,98,38.5c0,2.037-0.122,4.088-0.361,6.097 c-0.142,1.187-0.957,5.481-1.259,6.646c-2.621,10.071-7.705,16.942-10.98,20.548C85.466,72.543,85.5,73.281,85.5,74 C85.5,85.481,76.568,97.75,51.5,97.75z" opacity=".35"/><path fill="#f2f2f2" d="M49.5,95.75c-24.331,0-33-12.269-33-23.75c0-0.722,0.032-1.463,0.097-2.219 C12.26,64.994,4.303,53.977,4.017,37.399c-0.027-1.582,0.291-7.234,0.524-8.846C6.844,12.645,16.194,7,23.5,7 C26.901,7,38,8.694,38,30.5c0,0.532-0.013,1.05-0.039,1.555C38.988,31.385,40.208,31,41.502,31c0.387,0,0.777,0.035,1.158,0.104 c0.016,0.003,0.032,0.007,0.049,0.01c0.073-0.079,0.148-0.157,0.226-0.234c1.231-1.213,2.853-1.877,4.571-1.877 c0.875,0,1.725,0.172,2.509,0.501c0.796-0.328,1.646-0.497,2.491-0.497c2.476,0,4.702,1.374,5.808,3.587 c0.264,0.53,0.958,2.108,1.366,4.733c1.195,0.539,2.386,1.17,3.562,1.884C62.544,36.71,62,33.886,62,30.5C62,8.694,73.099,7,76.5,7 C83.743,7,96,13.213,96,36.5c0,2.037-0.122,4.088-0.361,6.097c-0.142,1.187-0.957,5.481-1.259,6.646 c-2.621,10.071-7.705,16.942-10.98,20.548C83.466,70.543,83.5,71.281,83.5,72C83.5,83.481,74.568,95.75,49.5,95.75z"/><path fill="#70bfff" d="M89.5,36.5c0-18-8-23-13-23c-4.697,0-8,6-8,17c0,10,6,14,4,27l-0.073,0.171 C67.16,48.916,58.122,41.5,49.5,41.5c-8.515,0-17.021,7.234-22.019,15.847C25.555,44.473,31.5,40.459,31.5,30.5c0-11-3.303-17-8-17 c-4.307,0-10.84,3.71-12.568,16.244C10.804,30.669,15.072,31.977,15,33c-0.085,1.207-4.5,2.15-4.5,3.5 c0,19.825,12.766,30.801,12.99,30.991C23.175,69.03,23,70.544,23,72c0,12.979,13.245,17.25,26.5,17.25S77,84.979,77,72 c0-1.456-0.188-2.971-0.525-4.511L76.5,67.5c0,0,8.241-6.973,11.6-19.909c0.259-0.998-4.295-2.522-4.1-3.591 c0.16-0.874,5.08-1.281,5.189-2.202C89.39,40.11,89.5,38.343,89.5,36.5z"/><path fill="#f4a3be" d="M31,35c-4,12-14.315,14.315-11.157,28.157L13,52l-2-11v-5l5-3l-4-4l1.067-6.798L17,16l5-3 l6.236,3.236L31,24l0.5,6.5C31.5,30.5,31.358,33.926,31,35z"/><path fill="#f4a3be" d="M69,35c4,12,14.315,14.315,11.157,28.157L87,52l0.89-4.898L84,45l4.807-2.941L89,41v-5l-1-7 l-1.067-6.798L83,16l-5-3l-6.236,3.236L69,24l-0.5,6.5C68.5,30.5,68.642,33.926,69,35z"/><ellipse cx="35" cy="65.5" fill="#d9eeff" rx="8" ry="10.5"/><ellipse cx="65" cy="65.5" fill="#d9eeff" rx="8" ry="10.5"/><path fill="none" stroke="#40396e" stroke-linecap="round" stroke-linejoin="round" stroke-miterlimit="10" stroke-width="3" d="M41.5,37.5c0,0,3.14,0.579,6,4"/><path fill="none" stroke="#40396e" stroke-linecap="round" stroke-linejoin="round" stroke-miterlimit="10" stroke-width="3" d="M47.5,35.5c0,0,2,2,3,6"/><path fill="none" stroke="#40396e" stroke-linecap="round" stroke-linejoin="round" stroke-miterlimit="10" stroke-width="3" d="M52.5,35.5c0,0,1,2,1,6"/><ellipse cx="35" cy="65.5" fill="#40396e" rx="5" ry="7.5"/><ellipse cx="65" cy="65.5" fill="#40396e" rx="5" ry="7.5"/><circle cx="35" cy="62" r="2" fill="#fff"/><circle cx="65" cy="62" r="2" fill="#fff"/><path fill="#40396e" d="M58.5,68c0,3.866-3.806,9.25-8.5,9.25s-8.5-5.384-8.5-9.25s3.806-8,8.5-8S58.5,64.134,58.5,68z"/><path fill="none" stroke="#fff" stroke-linecap="round" stroke-linejoin="round" stroke-miterlimit="10" stroke-width="3" d="M46.984,65.612C48.104,65.158,49.479,65,50.5,65s2.396,0.158,3.516,0.612"/><path fill="none" stroke="#40396e" stroke-linecap="round" stroke-linejoin="round" stroke-miterlimit="10" stroke-width="3" d="M32.5,79.5c0,0,4.375,1.989,8.749,1.989c4.373,0,4.373-0.978,8.746-0.978c4.376,0,4.376,0.978,8.752,0.978S67.5,79.5,67.5,79.5"/><path fill="none" stroke="#40396e" stroke-linecap="round" stroke-linejoin="round" stroke-miterlimit="10" stroke-width="3" d="M88.089,47.605L82.5,44.5l6.685-2.674c0.203-1.697,0.315-3.473,0.315-5.326c0-18-8-23-13-23c-4.697,0-8,6-8,17c0,10,6,14,4,27 l-0.073,0.171C67.16,48.916,58.122,41.5,49.5,41.5c-8.515,0-17.021,7.234-22.019,15.847C25.555,44.473,31.5,40.459,31.5,30.5 c0-11-3.303-17-8-17c-4.276,0-10.743,3.666-12.526,15.986L16.5,32.5l-5.984,4.787c0.334,19.324,12.754,30.016,12.974,30.204 C23.175,69.03,23,70.544,23,72c0,12.979,13.245,17.25,26.5,17.25S77,84.979,77,72c0-1.456-0.188-2.971-0.525-4.511L76.5,67.5 C76.5,67.5,84.726,60.528,88.089,47.605z"/></svg>